<svg version="1.1" id="Layer_1" xmlns="http://www.w3.org/2000/svg" xmlns:xlink="http://www.w3.org/1999/xlink" x="0px" y="0px"
	 width="100%" viewBox="0 0 100 100" enable-background="new 0 0 100 100" xml:space="preserve">
<path fill="#01AB01" opacity="1.000000" stroke="none" 
	d="
M55.000000,101.000000 
	C36.666668,101.000000 18.833340,101.000000 1.000007,101.000000 
	C1.000005,67.666679 1.000005,34.333351 1.000002,1.000021 
	C34.333317,1.000014 67.666634,1.000014 100.999969,1.000007 
	C100.999977,34.333313 100.999977,67.666626 100.999985,100.999969 
	C85.833336,101.000000 70.666664,101.000000 55.000000,101.000000 
M44.734264,33.135719 
	C43.484093,33.233845 42.233925,33.331966 40.772564,33.446667 
	C41.156094,35.852329 41.483654,37.906940 41.904938,40.549412 
	C36.051472,40.549412 30.635992,40.549412 25.290451,40.549412 
	C25.290451,52.699451 25.290451,64.291428 25.290451,75.924904 
	C31.186834,75.924904 36.785686,75.924904 42.918625,75.924904 
	C42.918625,67.200485 42.918625,58.695915 42.918625,50.191341 
	C43.324917,50.131920 43.731209,50.072498 44.137501,50.013077 
	C45.642227,56.289669 47.146954,62.566261 48.578835,68.539001 
	C52.421486,68.539001 55.676910,68.539001 59.243046,68.539001 
	C59.243046,66.255508 59.243046,64.303444 59.243046,61.689796 
	C65.249649,61.689796 70.967209,61.689796 76.543945,61.689796 
	C76.543945,49.425087 76.543945,37.836906 76.543945,26.219761 
	C70.618561,26.219761 65.016258,26.219761 58.978638,26.219761 
	C58.978638,28.513468 58.978638,30.586618 58.978638,33.136478 
	C54.263153,33.136478 49.971729,33.136478 44.734264,33.135719 
z"/>
<path fill="#FAFDFA" opacity="1.000000" stroke="none" 
	d="
M45.207283,33.136101 
	C49.971729,33.136478 54.263153,33.136478 58.978638,33.136478 
	C58.978638,30.586618 58.978638,28.513468 58.978638,26.219761 
	C65.016258,26.219761 70.618561,26.219761 76.543945,26.219761 
	C76.543945,37.836906 76.543945,49.425087 76.543945,61.689796 
	C70.967209,61.689796 65.249649,61.689796 59.243046,61.689796 
	C59.243046,64.303444 59.243046,66.255508 59.243046,68.539001 
	C55.676910,68.539001 52.421486,68.539001 48.578835,68.539001 
	C47.146954,62.566261 45.642227,56.289669 44.137501,50.013077 
	C43.731209,50.072498 43.324917,50.131920 42.918625,50.191341 
	C42.918625,58.695915 42.918625,67.200485 42.918625,75.924904 
	C36.785686,75.924904 31.186834,75.924904 25.290451,75.924904 
	C25.290451,64.291428 25.290451,52.699451 25.290451,40.549412 
	C30.635992,40.549412 36.051472,40.549412 41.904938,40.549412 
	C41.483654,37.906940 41.156094,35.852329 40.772564,33.446667 
	C42.233925,33.331966 43.484093,33.233845 45.207283,33.136101 
z"/>
</svg>